<mxfile host="app.diagrams.net" modified="2020-03-17T14:38:27.749Z" agent="Mozilla/5.0 (Macintosh; Intel Mac OS X 10_13_6) AppleWebKit/537.36 (KHTML, like Gecko) Chrome/80.0.3987.132 Safari/537.36" etag="u3FcmHrAj0tmaC3BylXA" version="12.8.6" type="github">
  <diagram id="C5RBs43oDa-KdzZeNtuy" name="Page-1">
    <mxGraphModel dx="786" dy="1683" grid="1" gridSize="10" guides="1" tooltips="1" connect="1" arrows="1" fold="1" page="1" pageScale="1" pageWidth="827" pageHeight="1169" math="0" shadow="0">
      <root>
        <mxCell id="WIyWlLk6GJQsqaUBKTNV-0" />
        <mxCell id="WIyWlLk6GJQsqaUBKTNV-1" parent="WIyWlLk6GJQsqaUBKTNV-0" />
        <mxCell id="o2nDlQT72Qmx8147mPEC-0" value="&lt;font style=&quot;font-size: 18px&quot;&gt;非懂不可的7堂經濟思考課&lt;/font&gt;" style="text;html=1;strokeColor=none;fillColor=none;align=center;verticalAlign=middle;whiteSpace=wrap;rounded=0;" parent="WIyWlLk6GJQsqaUBKTNV-1" vertex="1">
          <mxGeometry x="20" y="-30" width="280" height="40" as="geometry" />
        </mxCell>
        <mxCell id="o2nDlQT72Qmx8147mPEC-2" value="Adam Smith" style="rounded=1;whiteSpace=wrap;html=1;" parent="WIyWlLk6GJQsqaUBKTNV-1" vertex="1">
          <mxGeometry x="90" y="10" width="120" height="20" as="geometry" />
        </mxCell>
        <mxCell id="o2nDlQT72Qmx8147mPEC-6" value="" style="endArrow=none;html=1;" parent="WIyWlLk6GJQsqaUBKTNV-1" edge="1">
          <mxGeometry width="50" height="50" relative="1" as="geometry">
            <mxPoint x="70" y="630" as="sourcePoint" />
            <mxPoint x="70" y="120" as="targetPoint" />
          </mxGeometry>
        </mxCell>
        <mxCell id="o2nDlQT72Qmx8147mPEC-7" value="1700" style="text;html=1;strokeColor=none;fillColor=none;align=center;verticalAlign=middle;whiteSpace=wrap;rounded=0;" parent="WIyWlLk6GJQsqaUBKTNV-1" vertex="1">
          <mxGeometry x="10" y="110" width="40" height="20" as="geometry" />
        </mxCell>
        <mxCell id="o2nDlQT72Qmx8147mPEC-9" value="1800" style="text;html=1;strokeColor=none;fillColor=none;align=center;verticalAlign=middle;whiteSpace=wrap;rounded=0;" parent="WIyWlLk6GJQsqaUBKTNV-1" vertex="1">
          <mxGeometry x="10" y="280" width="40" height="20" as="geometry" />
        </mxCell>
        <mxCell id="o2nDlQT72Qmx8147mPEC-10" value="1900" style="text;html=1;strokeColor=none;fillColor=none;align=center;verticalAlign=middle;whiteSpace=wrap;rounded=0;" parent="WIyWlLk6GJQsqaUBKTNV-1" vertex="1">
          <mxGeometry x="10" y="440" width="40" height="20" as="geometry" />
        </mxCell>
        <mxCell id="o2nDlQT72Qmx8147mPEC-11" value="2000" style="text;html=1;strokeColor=none;fillColor=none;align=center;verticalAlign=middle;whiteSpace=wrap;rounded=0;" parent="WIyWlLk6GJQsqaUBKTNV-1" vertex="1">
          <mxGeometry x="10" y="600" width="40" height="20" as="geometry" />
        </mxCell>
        <mxCell id="o2nDlQT72Qmx8147mPEC-13" value="" style="strokeWidth=2;html=1;shape=mxgraph.flowchart.start_2;whiteSpace=wrap;fillColor=#0050ef;strokeColor=#001DBC;fontColor=#ffffff;" parent="WIyWlLk6GJQsqaUBKTNV-1" vertex="1">
          <mxGeometry x="120" y="130" width="10" height="10" as="geometry" />
        </mxCell>
        <mxCell id="o2nDlQT72Qmx8147mPEC-14" value="" style="strokeWidth=2;html=1;shape=mxgraph.flowchart.start_2;whiteSpace=wrap;fillColor=#0050ef;strokeColor=#001DBC;fontColor=#ffffff;" parent="WIyWlLk6GJQsqaUBKTNV-1" vertex="1">
          <mxGeometry x="120" y="250" width="10" height="10" as="geometry" />
        </mxCell>
        <mxCell id="o2nDlQT72Qmx8147mPEC-16" value="1723" style="text;html=1;strokeColor=none;fillColor=none;align=center;verticalAlign=middle;whiteSpace=wrap;rounded=0;" parent="WIyWlLk6GJQsqaUBKTNV-1" vertex="1">
          <mxGeometry x="130" y="125" width="40" height="20" as="geometry" />
        </mxCell>
        <mxCell id="o2nDlQT72Qmx8147mPEC-17" value="1790" style="text;html=1;strokeColor=none;fillColor=none;align=center;verticalAlign=middle;whiteSpace=wrap;rounded=0;" parent="WIyWlLk6GJQsqaUBKTNV-1" vertex="1">
          <mxGeometry x="140" y="250" width="40" height="20" as="geometry" />
        </mxCell>
        <mxCell id="o2nDlQT72Qmx8147mPEC-19" value="1. 經濟學之父&lt;br&gt;2. 提出利己心的論述&lt;br&gt;3. 即使每個人都追求自己的私立，因為被看不見的手引導，最後也會促進公共利益" style="rounded=1;whiteSpace=wrap;html=1;align=left;" parent="WIyWlLk6GJQsqaUBKTNV-1" vertex="1">
          <mxGeometry x="90" y="40" width="230" height="60" as="geometry" />
        </mxCell>
        <mxCell id="o2nDlQT72Qmx8147mPEC-20" value="David Ricardo" style="rounded=1;whiteSpace=wrap;html=1;" parent="WIyWlLk6GJQsqaUBKTNV-1" vertex="1">
          <mxGeometry x="360" y="10" width="120" height="20" as="geometry" />
        </mxCell>
        <mxCell id="o2nDlQT72Qmx8147mPEC-21" value="1. 演繹法經濟學的始祖&lt;br&gt;2. 提出利己心的論述&lt;br&gt;3. 即使每個人都追求自己的私立，因為被看不見的手引導，最後也會促進公共利益" style="rounded=1;whiteSpace=wrap;html=1;align=left;" parent="WIyWlLk6GJQsqaUBKTNV-1" vertex="1">
          <mxGeometry x="360" y="40" width="230" height="60" as="geometry" />
        </mxCell>
      </root>
    </mxGraphModel>
  </diagram>
</mxfile>
